<svg width="512" height="512" viewBox="0 0 512 512" fill="none" xmlns="http://www.w3.org/2000/svg">
<g clip-path="url(#clip0_1_15)">
<path d="M297.278 511.735L296.884 453.445C296.884 406.534 352.558 423.565 344.112 350.573L328.399 77.9502C327.882 65.7352 313.203 65.5082 313.653 77.7282L311.263 311.168C310.049 330.191 287.485 327.042 288.203 307.044L285.303 77.4662C285.303 63.7662 271.043 66.5332 270.91 78.4782L267.019 312.646C266.564 327.564 244.497 326.113 244.959 311.946L241.653 77.0922C241.653 66.4922 228.063 65.4472 227.778 75.8322L223.805 312.969C222.745 329.166 200.951 326.987 202.08 309.495L199.351 77.7602C199.526 64.6762 186.106 65.3612 185.487 77.7602L167.701 362.01C167.283 423.227 214.853 403.88 215.934 456.198L215.874 512C42.2739 485.172 -57.5361 285.963 35.6359 126.689C135.374 -43.8088 382.12 -41.8188 478.712 130.261C567.931 289.205 467.798 484.144 297.278 511.735Z" fill="#F97316"/>
</g>
<defs>
<clipPath id="clip0_1_15">
<rect width="512" height="512" fill="white"/>
</clipPath>
</defs>
</svg>
